{
	"asset":{
		"generator":"Khronos glTF Blender I/O v3.5.30",
		"version":"2.0"
	},
	"scene":0,
	"scenes":[
		{
			"name":"Scene",
			"nodes":[
				2
			]
		}
	],
	"nodes":[
		{
			"mesh":0,
			"name":"Cube.007",
			"translation":[
				0,
				-0.05899524688720703,
				0
			]
		},
		{
			"mesh":1,
			"name":"Cube.008"
		},
		{
			"children":[
				0,
				1
			],
			"mesh":2,
			"name":"Cube.006",
			"rotation":[
				0,
				-0.7071066498756409,
				0,
				0.70710688829422
			],
			"scale":[
				0.166720449924469,
				0.166720449924469,
				0.166720449924469
			]
		}
	],
	"materials":[
		{
			"doubleSided":true,
			"name":"Material.001",
			"normalTexture":{
				"index":0
			},
			"pbrMetallicRoughness":{
				"baseColorTexture":{
					"index":1
				},
				"metallicRoughnessTexture":{
					"index":2
				}
			}
		}
	],
	"meshes":[
		{
			"name":"Cube.012",
			"primitives":[
				{
					"attributes":{
						"POSITION":0,
						"TEXCOORD_0":1,
						"NORMAL":2
					},
					"indices":3,
					"material":0
				}
			]
		},
		{
			"name":"Cube.013",
			"primitives":[
				{
					"attributes":{
						"POSITION":4,
						"TEXCOORD_0":5,
						"NORMAL":6
					},
					"indices":7,
					"material":0
				}
			]
		},
		{
			"name":"Cube.011",
			"primitives":[
				{
					"attributes":{
						"POSITION":8,
						"TEXCOORD_0":9,
						"NORMAL":10
					},
					"indices":11,
					"material":0
				}
			]
		}
	],
	"textures":[
		{
			"sampler":0,
			"source":0
		},
		{
			"sampler":0,
			"source":1
		},
		{
			"sampler":0,
			"source":2
		}
	],
	"images":[
		{
			"mimeType":"image/png",
			"name":"Material_Normal",
			"uri":"Material_Normal.png"
		},
		{
			"mimeType":"image/png",
			"name":"Material_BaseColor",
			"uri":"Material_BaseColor.png"
		},
		{
			"mimeType":"image/png",
			"name":"Material_Metallic-Material_Roughness",
			"uri":"Material_Metallic-Material_Roughness.png"
		}
	],
	"accessors":[
		{
			"bufferView":0,
			"componentType":5126,
			"count":652,
			"max":[
				0.09685325622558594,
				1.0675908327102661,
				3.2709240913391113
			],
			"min":[
				-3.057330846786499,
				-1.0604228973388672,
				-3.2709240913391113
			],
			"type":"VEC3"
		},
		{
			"bufferView":1,
			"componentType":5126,
			"count":652,
			"type":"VEC2"
		},
		{
			"bufferView":2,
			"componentType":5126,
			"count":652,
			"type":"VEC3"
		},
		{
			"bufferView":3,
			"componentType":5123,
			"count":1944,
			"type":"SCALAR"
		},
		{
			"bufferView":4,
			"componentType":5126,
			"count":336,
			"max":[
				13.143205642700195,
				0.592231273651123,
				0.6051766276359558
			],
			"min":[
				11.068156242370605,
				-1.1899428367614746,
				-0.6051766276359558
			],
			"type":"VEC3"
		},
		{
			"bufferView":5,
			"componentType":5126,
			"count":336,
			"type":"VEC2"
		},
		{
			"bufferView":6,
			"componentType":5126,
			"count":336,
			"type":"VEC3"
		},
		{
			"bufferView":7,
			"componentType":5123,
			"count":924,
			"type":"SCALAR"
		},
		{
			"bufferView":8,
			"componentType":5126,
			"count":17926,
			"max":[
				20.552043914794922,
				4.792584419250488,
				10.620863914489746
			],
			"min":[
				-9.52053165435791,
				-1,
				-10.620863914489746
			],
			"type":"VEC3"
		},
		{
			"bufferView":9,
			"componentType":5126,
			"count":17926,
			"type":"VEC2"
		},
		{
			"bufferView":10,
			"componentType":5126,
			"count":17926,
			"type":"VEC3"
		},
		{
			"bufferView":11,
			"componentType":5123,
			"count":52836,
			"type":"SCALAR"
		}
	],
	"bufferViews":[
		{
			"buffer":0,
			"byteLength":7824,
			"byteOffset":0,
			"target":34962
		},
		{
			"buffer":0,
			"byteLength":5216,
			"byteOffset":7824,
			"target":34962
		},
		{
			"buffer":0,
			"byteLength":7824,
			"byteOffset":13040,
			"target":34962
		},
		{
			"buffer":0,
			"byteLength":3888,
			"byteOffset":20864,
			"target":34963
		},
		{
			"buffer":0,
			"byteLength":4032,
			"byteOffset":24752,
			"target":34962
		},
		{
			"buffer":0,
			"byteLength":2688,
			"byteOffset":28784,
			"target":34962
		},
		{
			"buffer":0,
			"byteLength":4032,
			"byteOffset":31472,
			"target":34962
		},
		{
			"buffer":0,
			"byteLength":1848,
			"byteOffset":35504,
			"target":34963
		},
		{
			"buffer":0,
			"byteLength":215112,
			"byteOffset":37352,
			"target":34962
		},
		{
			"buffer":0,
			"byteLength":143408,
			"byteOffset":252464,
			"target":34962
		},
		{
			"buffer":0,
			"byteLength":215112,
			"byteOffset":395872,
			"target":34962
		},
		{
			"buffer":0,
			"byteLength":105672,
			"byteOffset":610984,
			"target":34963
		}
	],
	"samplers":[
		{
			"magFilter":9729,
			"minFilter":9987
		}
	],
	"buffers":[
		{
			"byteLength":716656,
			"uri":"untitled.bin"
		}
	]
}
